<?xml version="1.0" encoding="UTF-8" standalone="no"?>
<svg width="556px" height="807px" viewBox="0 0 556 807" version="1.1" xmlns="http://www.w3.org/2000/svg" xmlns:xlink="http://www.w3.org/1999/xlink" xmlns:sketch="http://www.bohemiancoding.com/sketch/ns">
    <!-- Generator: Sketch 3.2.2 (9983) - http://www.bohemiancoding.com/sketch -->
    <title>Imported Layers</title>
    <desc>Created with Sketch.</desc>
    <defs></defs>
    <g id="Page-1" stroke="none" stroke-width="1" fill="none" fill-rule="evenodd" sketch:type="MSPage">
        <g id="Artboard-1" sketch:type="MSArtboardGroup" transform="translate(-67.000000, -42.000000)">
            <g id="Imported-Layers" sketch:type="MSLayerGroup" transform="translate(67.000000, 42.000000)">
                <path d="M188.179,173.291 C188.179,173.291 177.179,141.291 189.179,94.291 C195.179,110.291 207.179,121.291 207.179,142.291 C207.179,163.291 188.179,173.291 188.179,173.291" id="Fill-1" fill="#FBB040" sketch:type="MSShapeGroup"></path>
                <path d="M336.179,109.291 L330.179,91.291 C327.179,82.291 311.179,46.291 334.179,0.291 C350.179,28.291 346.179,58.291 345.179,65.291 C344.179,72.291 334.179,97.291 336.179,109.291" id="Fill-2" fill="#FBB040" sketch:type="MSShapeGroup"></path>
                <path d="M90.179,455.291 L269.179,414.291 L452.179,441.291 L281.179,484.291 L90.179,455.291 L90.179,455.291 Z" id="Fill-3" fill="#FFFFFF" sketch:type="MSShapeGroup"></path>
                <path d="M90.179,455.291 L269.179,414.291 L452.179,441.291 L281.179,484.291 L90.179,455.291 L90.179,455.291 Z" id="Stroke-4" stroke="#4280A6" stroke-width="6" stroke-linecap="round" stroke-linejoin="round" sketch:type="MSShapeGroup"></path>
                <path d="M156,462 C156,462 88.179,423.291 120.179,320.291 C122.179,347.291 150.179,372.291 150.179,372.291 C150.179,372.291 125.179,318.291 131.179,280.291 C137.179,242.291 144.179,198.291 156.179,173.291 C159.179,204.291 194.179,232.291 194.179,232.291 C194.179,232.291 237.179,165.291 235.179,123.291 C233.179,81.291 227.179,32.291 217.179,17.291 C238.179,20.291 301.179,80.291 289.179,182.291 C289.179,184.291 297.179,161.291 297.179,161.291 L299.179,181.291 C299.179,181.291 314.179,127.291 307.179,103.291 C326.179,124.291 318.179,212.291 327.179,221.291 C327.179,187.291 356.179,167.291 356.179,167.291 C356.179,167.291 342.179,192.291 349.179,213.291 C356.179,234.291 381.179,269.291 384.179,297.291 C387.179,325.291 387.179,377.291 387.179,377.291 C387.179,377.291 401.179,342.291 402.179,320.291 C415.179,338.291 429.679,420.291 412.679,448.291 C409.679,450.291 281.179,481.291 281.179,481.291 L156,462" id="Fill-5" fill="#FBB040" sketch:type="MSShapeGroup"></path>
                <path d="M353.179,397.291 C353.179,416.291 337.179,434.291 332.179,434.291 C347.179,396.291 328.179,322.291 314.179,308.291 C321.179,324.291 299.179,343.291 291.179,372.291 C295.179,358.291 288.179,331.291 288.179,331.291 C288.179,331.291 284.179,346.291 284.179,347.291 C283.179,335.291 271.179,258.291 238.179,251.291 C252.179,268.291 258.179,327.291 242.179,370.291 C245.179,360.291 236.179,317.291 225.179,299.291 C228.179,318.291 211.179,342.291 197.179,365.291 C183.179,388.291 185.179,415.291 202.179,441.291 C202.179,441.291 177.179,424.291 175.179,393.291 C154.708,428.384 171.269,455.988 181,466 L280.679,481.291 L355,463 C366.278,443.808 358.605,411.763 353.179,397.291" id="Fill-6" fill="#FFFFFF" sketch:type="MSShapeGroup"></path>
                <path d="M279.705,484.659 L90.179,455.291 L103.429,607.667 L136.833,607.833 L103.833,613.333 L104.179,616.291 L250.143,666.039 C255.153,657.047 264.753,650.962 275.777,650.962 C278.98,650.962 282.06,651.482 284.944,652.431 L281.179,484.291 L279.705,484.659" id="Fill-7" fill="#4280A6" sketch:type="MSShapeGroup"></path>
                <path d="M417.238,602.624 L452.503,603.293 L452.179,441.291 L281.179,484.291 L284.944,652.431 C293.693,655.309 300.62,662.187 303.565,670.904 L452.334,608.333 L417.238,602.624" id="Fill-8" fill="#1F3A4D" sketch:type="MSShapeGroup"></path>
                <path d="M90.609,458.458 L281.609,489.291 L281.609,495.791 L90.609,458.458" id="Fill-9" fill="#1F3A4D" sketch:type="MSShapeGroup"></path>
                <path d="M511.437,635.174 C510.132,629.42 507.532,623.705 503.017,619.266 C500.761,617.076 497.986,615.253 494.837,614.238 C492.485,613.461 489.956,613.168 487.465,613.357 L417.238,602.624 C417.238,602.624 395.679,600.291 384.238,614.291 C378.586,621.208 376.076,630.31 374.982,637.758 L349.222,627.396 C349.222,627.396 333.846,620.291 321.156,631.957 C308.466,643.623 311.512,659.548 311.512,666.957 L359.822,698.207 L360.054,697.671 C360.268,697.843 360.47,698.029 360.688,698.193 C352.621,688.871 350.651,675.885 353.843,664.986 C355.447,659.517 358.393,654.482 362.467,650.76 C366.492,647.026 371.733,644.7 377.005,644.553 C382.43,644.328 387.699,646.283 391.955,649.773 C396.227,653.243 399.421,658.127 401.272,663.513 C403.974,671.406 403.907,680.492 400.725,688.627 C401.501,688.406 402.284,688.199 403.07,688 C404.173,685.862 405.057,683.594 405.703,681.26 C407.188,675.785 407.388,669.916 406.246,664.235 C400.462,642.958 383.875,640.25 383.875,640.25 C390.422,640.25 406.71,649.19 409.883,661.922 L475.352,677.994 C475.352,677.994 473.203,675.403 472.349,673.979 C469.521,669.333 467.958,664.008 467.342,658.639 C466.737,653.262 467.053,647.778 468.227,642.538 C469.401,637.312 471.45,632.277 474.483,628.045 C477.472,623.827 481.572,620.393 486.236,619.246 C488.552,618.66 490.99,618.693 493.33,619.293 C495.664,619.911 497.893,621.117 499.865,622.754 C503.831,626.046 506.727,630.841 508.623,635.996 C510.558,641.179 511.433,646.81 511.593,652.545 C512.752,646.911 512.695,640.964 511.437,635.174" id="Fill-10" fill="#FBB040" sketch:type="MSShapeGroup"></path>
                <path d="M307.47,672.54 L301.755,648.393 C297.062,638.263 287.562,631.337 276.607,631.337 C265.652,631.337 256.153,638.263 251.461,648.393 L248.67,660.185 C248.479,652.649 242.302,637.613 234.929,633.291 C224.179,626.541 210.529,631.731 210.529,631.731 L184.556,642.178 C183.023,633.959 179.313,623.547 170.512,615.625 C157.179,603.625 142.512,606.958 142.512,606.958 L72.286,617.691 C69.795,617.502 67.266,617.795 64.914,618.572 C61.765,619.587 58.99,621.41 56.734,623.6 C52.219,628.039 49.618,633.754 48.314,639.508 C47.055,645.298 46.998,651.245 48.158,656.879 C48.318,651.144 49.192,645.513 51.127,640.33 C53.024,635.175 55.92,630.379 59.886,627.088 C61.857,625.451 64.087,624.245 66.421,623.627 C68.76,623.027 71.199,622.994 73.514,623.58 C78.179,624.727 82.279,628.161 85.268,632.379 C88.301,636.611 90.35,641.645 91.524,646.872 C92.698,652.112 93.014,657.596 92.409,662.973 C91.793,668.342 90.231,673.667 87.401,678.313 C86.982,679.012 86.523,679.691 86.033,680.352 C88.447,681.142 132.924,670.398 148.799,666.518 C152.193,648.448 173.594,641.993 181.127,642.393 C181.127,642.393 161.93,644.106 154.243,665.182 C154.326,665.162 154.379,665.148 154.379,665.148 C154.242,665.597 154.095,666.042 153.977,666.493 C152.322,672.808 152.381,679.449 154.047,685.594 C154.447,687.039 154.945,688.458 155.522,689.839 C156.418,690.09 157.312,690.349 158.205,690.615 C155.861,683.107 156.035,674.989 158.478,667.847 C160.33,662.461 163.524,657.577 167.795,654.106 C172.052,650.617 177.321,648.662 182.746,648.887 C188.018,649.034 193.259,651.36 197.283,655.094 C201.357,658.816 204.304,663.851 205.908,669.32 C209.1,680.219 207.129,693.205 199.062,702.527 C199.281,702.363 199.483,702.177 199.697,702.005 L199.929,702.541 L227.728,682.854 C232.27,678.4 243.982,671.935 247.598,664.714 L245.752,672.51 C245.535,672.906 245.309,673.297 245.107,673.7 C242.225,679.45 240.9,685.892 241.217,692.159 C241.546,698.418 243.398,704.559 246.762,709.626 C242.352,698.33 243.416,685.653 249.248,675.96 C252.151,671.123 256.174,667.019 260.934,664.207 C265.674,661.374 271.127,659.858 276.607,659.872 C282.09,659.854 287.543,661.37 292.286,664.201 C297.045,667.016 301.074,671.115 303.975,675.956 C309.81,685.651 310.872,698.334 306.453,709.626 C309.812,704.556 311.665,698.418 311.99,692.159 C312.307,685.894 310.982,679.453 308.102,673.704 C307.904,673.31 307.682,672.928 307.47,672.54" id="Fill-11" fill="#FBB040" sketch:type="MSShapeGroup"></path>
                <path d="M36.932,756.833 L32.082,762.496 C29.166,759.713 25.748,758.32 21.826,758.32 C18.486,758.269 15.625,759.389 13.24,761.684 C10.855,763.979 9.635,767.137 9.584,771.156 C9.584,774.714 10.668,777.705 12.842,780.127 C15.016,782.55 18.037,783.761 21.906,783.761 C25.35,783.761 28.822,782.267 32.32,779.276 L37.25,784.847 C32.689,789.635 27.576,792.028 21.906,792.028 C15.334,792.028 10.191,789.989 6.482,785.907 C2.771,781.827 0.918,776.872 0.918,771.041 C0.971,765.265 2.879,760.336 6.643,756.254 C10.404,752.173 15.492,750.106 21.906,750.053 C27.523,750.053 32.531,752.314 36.932,756.833" id="Fill-12" fill="#1F3A4D" sketch:type="MSShapeGroup"></path>
                <path d="M82.881,771.004 C82.881,776.897 80.894,781.875 76.92,785.938 C72.943,789.999 67.935,792.028 61.894,792.028 C55.904,792.028 50.894,789.947 46.869,785.782 C42.84,781.617 40.826,776.69 40.826,771.004 C40.826,765.316 42.84,760.418 46.869,756.304 C50.894,752.19 55.904,750.132 61.894,750.132 C67.935,750.132 72.943,752.13 76.92,756.125 C80.894,760.119 82.881,765.078 82.881,771.004 L82.881,771.004 Z M53.229,761.667 C50.736,763.845 49.492,766.958 49.492,771.005 C49.492,775.052 50.736,778.189 53.229,780.418 C55.719,782.646 58.607,783.761 61.894,783.761 C65.232,783.761 68.121,782.646 70.559,780.418 C72.996,778.189 74.217,775.052 74.217,771.005 C74.217,766.958 72.996,763.845 70.559,761.667 C68.121,759.489 65.232,758.4 61.894,758.4 C58.607,758.4 55.719,759.489 53.229,761.667 L53.229,761.667 Z" id="Fill-13" fill="#1F3A4D" sketch:type="MSShapeGroup"></path>
                <path d="M90.115,791.154 L90.115,752.75 C95.24,751.006 100.711,750.132 106.523,750.132 C110.523,750.132 114.002,750.698 116.963,751.832 C119.922,752.965 122.361,754.915 124.281,757.681 C126.203,760.447 127.162,763.937 127.162,768.154 L127.162,791.154 L118.496,791.154 L118.496,768.02 C118.496,764.257 117.299,761.54 114.904,759.871 C112.51,758.201 109.449,757.367 105.727,757.367 C104.182,757.367 101.867,757.765 98.781,758.56 L98.781,791.154 L90.115,791.154" id="Fill-14" fill="#1F3A4D" sketch:type="MSShapeGroup"></path>
                <path d="M154.67,782.966 L154.67,791.233 C149.793,791.711 145.896,790.896 142.982,788.789 C140.066,786.683 138.609,783.28 138.609,778.582 L138.609,758.082 L133.92,758.082 L133.92,750.848 L138.609,750.848 L138.609,735.504 L147.275,735.504 L147.275,750.848 L154.67,750.848 L154.67,758.082 L147.275,758.082 L147.275,778.023 C147.275,779.705 147.918,781.006 149.203,781.925 C150.486,782.844 152.309,783.191 154.67,782.966" id="Fill-15" fill="#1F3A4D" sketch:type="MSShapeGroup"></path>
                <path d="M195.69,791.154 L188.66,791.154 L187.352,786.84 C185.701,788.711 183.99,790.003 182.215,790.719 C180.437,791.433 178.332,791.79 175.894,791.79 C169.535,791.79 164.924,789.724 162.06,785.589 C159.676,782.144 159.199,778.408 160.631,774.38 C162.113,770.141 165.293,767.173 170.17,765.476 C172.768,764.522 175.656,764.045 178.836,764.045 C182.016,764.045 184.719,764.84 186.945,766.43 C186.945,763.039 186.043,760.601 184.242,759.116 C182.439,757.633 180.135,756.917 177.326,756.97 C173.402,757.022 169.693,758.109 166.195,760.229 L162.777,755.062 C165.586,752.73 168.871,751.166 172.635,750.371 C176.398,749.576 179.969,749.576 183.348,750.371 C186.727,751.166 189.629,752.981 192.053,755.816 C194.479,758.652 195.69,762.269 195.69,766.668 L195.69,791.154 L195.69,791.154 Z M177.961,783.523 C181.883,783.523 184.904,782.412 187.025,780.19 L187.025,773.526 C184.799,772.028 182.096,771.279 178.916,771.279 C175.682,771.331 173.084,771.951 171.125,773.139 C169.162,774.327 168.184,775.8 168.184,777.556 C168.184,781.533 171.443,783.523 177.961,783.523 L177.961,783.523 Z" id="Fill-16" fill="#1F3A4D" sketch:type="MSShapeGroup"></path>
                <path d="M205.389,735.504 L214.213,735.504 L214.213,745.203 L205.389,745.203 L205.389,735.504 Z M205.467,750.688 L214.133,750.688 L214.133,791.154 L205.467,791.154 L205.467,750.688 Z" id="Fill-17" fill="#1F3A4D" sketch:type="MSShapeGroup"></path>
                <path d="M224.469,791.154 L224.469,752.75 C229.594,751.006 235.062,750.132 240.877,750.132 C244.875,750.132 248.355,750.698 251.314,751.832 C254.273,752.965 256.715,754.915 258.635,757.681 C260.555,760.447 261.516,763.937 261.516,768.154 L261.516,791.154 L252.85,791.154 L252.85,768.02 C252.85,764.257 251.652,761.54 249.258,759.871 C246.861,758.201 243.803,757.367 240.078,757.367 C238.535,757.367 236.219,757.765 233.133,758.56 L233.133,791.154 L224.469,791.154" id="Fill-18" fill="#1F3A4D" sketch:type="MSShapeGroup"></path>
                <path d="M289.021,784.556 C293.897,784.556 297.607,782.72 300.151,779.047 L306.512,783.138 C302.006,788.906 296.177,791.79 289.021,791.79 C282.502,791.79 277.426,789.734 273.797,785.62 C270.166,781.508 268.377,776.674 268.43,771.12 C268.43,765.566 270.271,760.733 273.955,756.619 C277.639,752.506 282.634,750.423 288.942,750.371 C294.718,750.318 299.462,752.163 303.173,755.904 C306.882,759.647 308.737,764.305 308.737,769.877 C308.737,771.324 308.631,772.878 308.419,774.539 L277.096,774.539 C277.625,777.321 278.937,779.687 281.031,781.634 C283.125,783.582 285.788,784.556 289.021,784.556 L289.021,784.556 Z M277.256,767.305 L300.311,767.305 C299.727,764.309 298.455,761.957 296.494,760.247 C294.533,758.538 292.042,757.657 289.021,757.605 C285.683,757.657 283.031,758.538 281.07,760.247 C279.109,761.957 277.838,764.309 277.256,767.305 L277.256,767.305 Z" id="Fill-19" fill="#1F3A4D" sketch:type="MSShapeGroup"></path>
                <path d="M316.925,750.688 L324.397,750.688 L324.994,755.277 C326.822,751.805 330.015,749.983 334.573,749.815 C337.965,749.815 341.039,750.729 343.796,752.559 L340.139,759.885 C337.965,758.735 335.806,758.148 333.659,758.122 C331.513,758.096 329.631,758.827 328.015,760.315 C326.397,761.805 325.59,763.777 325.59,766.232 L325.59,791.154 L316.925,791.154 L316.925,750.688" id="Fill-20" fill="#1F3A4D" sketch:type="MSShapeGroup"></path>
                <path d="M346.022,781.852 L355.721,781.852 L355.721,791.313 L346.022,791.313 L346.022,781.852 Z" id="Fill-21" fill="#1F3A4D" sketch:type="MSShapeGroup"></path>
                <path d="M399.049,756.049 L392.927,762.676 C391.178,761.066 389.163,760.026 386.885,759.558 C384.605,759.091 382.485,759.182 380.525,759.831 C378.563,760.481 376.908,761.767 375.557,763.69 C374.205,765.612 373.502,767.951 373.449,770.705 C373.395,774.032 374.468,776.773 376.668,778.933 C378.868,781.092 381.559,782.118 384.738,782.012 C387.919,781.906 390.753,780.554 393.245,777.955 L399.446,784.396 C397.272,787.277 394.954,789.283 392.49,790.414 C390.025,791.543 387.176,792.108 383.943,792.108 C377.425,792.108 372.229,790.041 368.361,785.907 C364.492,781.773 362.558,776.818 362.558,771.041 C362.611,765.265 364.585,760.282 368.48,756.095 C372.376,751.908 377.53,749.788 383.943,749.734 C386.911,749.734 389.561,750.203 391.894,751.139 C394.226,752.074 396.61,753.711 399.049,756.049" id="Fill-22" fill="#FBB040" sketch:type="MSShapeGroup"></path>
                <path d="M440.627,791.154 L431.833,791.154 L430.381,787.577 C428.005,790.546 424.784,792.028 420.72,792.028 C415.447,792.028 411.299,790.691 408.275,788.014 C405.25,785.338 403.738,782.144 403.738,778.435 C403.738,776.103 404.283,774.01 405.373,772.153 C406.464,770.299 407.921,768.828 409.747,767.741 C411.573,766.656 413.603,765.821 415.838,765.237 C418.072,764.654 420.389,764.402 422.788,764.482 C425.185,764.562 427.475,764.946 429.655,765.635 C429.655,763.25 428.891,761.501 427.362,760.388 C425.833,759.274 423.936,758.719 421.668,758.719 C418.087,758.719 414.397,759.752 410.6,761.818 L406.654,755.141 C411.371,751.483 416.719,749.655 422.697,749.655 C427.713,749.655 431.955,751.153 435.423,754.148 C438.892,757.142 440.627,761.421 440.627,766.986 L440.627,791.154 L440.627,791.154 Z M422.697,783.125 C425.069,783.125 427.415,782.171 429.735,780.263 L429.735,773.902 C427.941,773.107 425.899,772.658 423.606,772.552 C421.313,772.445 419.256,772.829 417.438,773.704 C415.619,774.578 414.683,775.918 414.63,777.719 C414.577,779.203 415.288,780.476 416.766,781.535 C418.241,782.596 420.219,783.125 422.697,783.125 L422.697,783.125 Z" id="Fill-23" fill="#FBB040" sketch:type="MSShapeGroup"></path>
                <path d="M496.366,762.392 C495.102,761.154 493.494,760.544 491.546,760.561 C489.596,760.576 487.976,761.227 486.685,762.515 C485.393,763.802 484.748,765.68 484.748,768.149 L484.748,791.154 L473.856,791.154 L473.856,767.959 C473.909,765.228 473.198,763.242 471.723,762.005 C470.247,760.768 468.378,760.149 466.111,760.149 C464.636,760.149 462.739,760.511 460.421,761.231 L460.421,791.154 L449.529,791.154 L449.529,753.458 C456.548,751.034 462.067,749.793 466.087,749.734 C472.838,749.629 477.285,751.912 479.43,756.585 C481.597,752.125 485.661,749.894 491.624,749.894 C503.31,749.894 509.155,755.804 509.155,767.622 L509.155,791.154 L498.264,791.154 L498.264,768.113 C498.264,765.537 497.631,763.629 496.366,762.392" id="Fill-24" fill="#FBB040" sketch:type="MSShapeGroup"></path>
                <path d="M528.871,806.26 L517.979,806.26 L517.979,752.714 C522.908,750.834 528.314,749.894 534.197,749.894 C540.687,749.894 545.847,751.965 549.678,756.105 C553.509,760.245 555.424,765.119 555.424,770.729 C555.424,776.408 553.428,781.339 549.437,785.519 C545.448,789.701 540.553,791.79 534.754,791.79 C533.057,791.79 531.097,791.524 528.871,790.995 L528.871,806.26 L528.871,806.26 Z M528.871,760.602 L528.871,780.704 C530.461,781.258 531.997,781.535 533.481,781.535 C536.503,781.535 539.087,780.503 541.233,778.437 C543.38,776.372 544.478,773.802 544.532,770.729 C544.585,768.06 543.67,765.629 541.79,763.438 C539.907,761.246 537.377,760.149 534.197,760.149 C531.759,760.251 529.983,760.401 528.871,760.602 L528.871,760.602 Z" id="Fill-25" fill="#FBB040" sketch:type="MSShapeGroup"></path>
                <path d="M281.276,489.291 L452.209,444.042 L452.876,440.875 L280.5,483.5 L281.276,489.291" id="Fill-26" fill="#4280A6" sketch:type="MSShapeGroup"></path>
                <path d="M260.108,490.957 L262.942,631.957 L255.109,489.624 L260.108,490.957" id="Fill-27" fill="#1F3A4D" sketch:type="MSShapeGroup"></path>
                <path d="M235.643,622.957 L227.176,484.291 L231.842,485.49 L235.643,622.957" id="Fill-28" fill="#1F3A4D" sketch:type="MSShapeGroup"></path>
                <path d="M208.343,613.957 L199.243,478.958 L203.576,480.024 L208.343,613.957" id="Fill-29" fill="#1F3A4D" sketch:type="MSShapeGroup"></path>
                <path d="M181.043,604.958 L171.31,473.624 L175.309,474.558 L181.043,604.958" id="Fill-30" fill="#1F3A4D" sketch:type="MSShapeGroup"></path>
                <path d="M153.743,595.958 L143.377,468.291 L147.043,469.092 L153.743,595.958" id="Fill-31" fill="#1F3A4D" sketch:type="MSShapeGroup"></path>
                <path d="M118.776,463.625 L126.443,586.958 L115.443,462.958 L118.776,463.625" id="Fill-32" fill="#1F3A4D" sketch:type="MSShapeGroup"></path>
                <path d="M66.709,563.375 C59.673,563.375 53.383,568.118 49.202,575.567 L96,581 L48.044,577.824 C45.68,582.834 44.203,588.834 43.957,595.328 L93.552,596.334 L43.925,596.84 C43.924,596.981 43.918,597.118 43.918,597.259 C43.918,601.006 44.354,604.593 45.111,607.961 L102.835,607.67 L97.109,567.291 L66.709,563.375 L66.709,563.375 Z M509.008,588.971 L458,588.334 L508.821,587.072 C508.014,580.182 505.81,574.007 502.653,569.218 L456,573 L500.755,566.64 C496.832,561.892 491.828,559.041 486.375,559.041 L453.109,563.625 L452.564,603.294 L507.834,604.343 C508.693,600.774 509.167,596.934 509.167,592.925 C509.167,591.586 509.109,590.269 509.008,588.971 L509.008,588.971 Z" id="Fill-33" fill="#FBB040" sketch:type="MSShapeGroup"></path>
                <path d="M390,620.334 L460.667,633.001" id="Stroke-34" stroke="#FFFFFF" sketch:type="MSShapeGroup"></path>
                <path d="M489.421,667.807 C488.178,667.139 487.133,666.126 486.293,664.985 C485.446,663.845 484.773,662.579 484.232,661.265 C483.177,658.619 482.65,655.784 482.51,652.942 C482.361,650.098 482.674,647.224 483.435,644.462 C484.22,641.724 485.445,639.002 487.586,636.938 C488.66,635.935 490.024,635.14 491.546,634.925 C493.042,634.69 494.644,635.108 495.885,635.909 C497.149,636.708 498.152,637.816 498.959,639.017 C499.772,640.218 500.385,641.532 500.855,642.884 C502.697,648.303 502.67,654.26 500.938,659.613 C501.618,656.881 501.89,654.076 501.746,651.285 C501.627,648.502 501.126,645.729 500.133,643.149 C499.125,640.616 497.677,638.104 495.405,636.683 C494.273,635.986 492.982,635.662 491.685,635.869 C490.408,636.063 489.231,636.754 488.268,637.668 C486.31,639.508 485.085,642.086 484.31,644.711 C483.532,647.361 483.248,650.146 483.275,652.918 C483.32,655.69 483.75,658.474 484.687,661.092 C485.608,663.685 487.046,666.248 489.421,667.807" id="Fill-35" fill="#FBB040" sketch:type="MSShapeGroup"></path>
                <path d="M506.436,655.702 C506.724,651.824 506.555,647.914 505.791,644.121 C505.056,640.333 503.773,636.625 501.742,633.371 C500.723,631.754 499.514,630.254 498.09,629.009 C496.667,627.769 494.996,626.808 493.184,626.383 C491.372,625.95 489.449,626.085 487.715,626.741 C485.971,627.392 484.414,628.517 483.102,629.868 C480.446,632.576 478.67,636.09 477.5,639.729 C476.328,643.389 475.804,647.241 475.72,651.091 C475.652,654.944 476.102,658.819 477.159,662.536 C478.194,666.248 479.855,669.847 482.409,672.795 C479.681,669.994 477.895,666.387 476.689,662.677 C475.521,658.936 474.977,655.01 474.95,651.087 C474.914,647.162 475.476,643.223 476.632,639.455 C477.808,635.709 479.597,632.059 482.389,629.168 C483.792,627.747 485.472,626.544 487.386,625.846 C489.296,625.142 491.424,625.009 493.395,625.5 C495.377,625.981 497.165,627.038 498.658,628.359 C500.164,629.681 501.386,631.275 502.396,632.972 C506.382,639.838 507.399,648.019 506.436,655.702" id="Fill-36" fill="#FBB040" sketch:type="MSShapeGroup"></path>
                <path d="M500.938,659.613 C501.688,656.901 501.972,654.079 501.87,651.281 C501.773,648.486 501.294,645.693 500.314,643.082 C499.323,640.514 497.858,637.966 495.525,636.489 C494.372,635.767 492.987,635.418 491.65,635.633 C490.312,635.832 489.088,636.549 488.098,637.486 C486.094,639.382 484.869,641.995 484.092,644.649 C483.317,647.327 483.028,650.133 483.085,652.926 C483.153,655.712 483.607,658.511 484.574,661.135 C485.535,663.725 487.002,666.307 489.421,667.807 C486.956,666.377 485.393,663.812 484.346,661.222 C483.319,658.582 482.817,655.762 482.7,652.935 C482.582,650.111 482.889,647.257 483.654,644.524 C484.436,641.815 485.66,639.128 487.757,637.121 C488.804,636.141 490.12,635.371 491.581,635.161 C493.037,634.935 494.546,635.328 495.765,636.102 C498.223,637.692 499.715,640.312 500.674,642.95 C502.544,648.31 502.558,654.235 500.938,659.613" id="Fill-37" fill="#FBB040" sketch:type="MSShapeGroup"></path>
                <path d="M70.912,670.473 C73.287,668.914 74.724,666.351 75.645,663.758 C76.583,661.14 77.013,658.356 77.058,655.584 C77.084,652.813 76.8,650.027 76.023,647.377 C75.248,644.752 74.023,642.174 72.065,640.334 C71.101,639.42 69.925,638.73 68.647,638.535 C67.351,638.328 66.06,638.652 64.928,639.349 C62.657,640.769 61.208,643.282 60.2,645.815 C59.207,648.395 58.706,651.168 58.586,653.951 C58.443,656.742 58.715,659.547 59.394,662.279 C57.663,656.926 57.636,650.969 59.478,645.55 C59.948,644.198 60.56,642.884 61.373,641.683 C62.18,640.482 63.184,639.374 64.449,638.575 C65.688,637.774 67.291,637.356 68.787,637.591 C70.309,637.806 71.673,638.601 72.747,639.604 C74.888,641.668 76.113,644.39 76.897,647.128 C77.66,649.89 77.972,652.764 77.823,655.608 C77.683,658.45 77.156,661.285 76.101,663.931 C75.559,665.245 74.887,666.511 74.04,667.651 C73.2,668.792 72.156,669.805 70.912,670.473" id="Fill-38" fill="#FBB040" sketch:type="MSShapeGroup"></path>
                <path d="M53.896,658.368 C52.934,650.685 53.951,642.504 57.937,635.638 C58.947,633.941 60.169,632.347 61.675,631.025 C63.168,629.704 64.956,628.646 66.938,628.166 C68.91,627.675 71.038,627.808 72.947,628.512 C74.861,629.21 76.541,630.413 77.944,631.834 C80.736,634.725 82.525,638.375 83.702,642.121 C84.857,645.889 85.419,649.828 85.383,653.753 C85.356,657.676 84.811,661.602 83.644,665.343 C82.438,669.053 80.652,672.66 77.924,675.461 C80.478,672.513 82.139,668.914 83.174,665.202 C84.231,661.485 84.681,657.61 84.613,653.757 C84.529,649.907 84.005,646.055 82.833,642.395 C81.664,638.756 79.887,635.242 77.232,632.534 C75.919,631.183 74.363,630.058 72.618,629.407 C70.883,628.751 68.961,628.616 67.15,629.049 C65.337,629.474 63.666,630.436 62.244,631.675 C60.819,632.92 59.61,634.42 58.59,636.037 C56.56,639.291 55.277,642.999 54.542,646.787 C53.778,650.58 53.609,654.49 53.896,658.368" id="Fill-39" fill="#FBB040" sketch:type="MSShapeGroup"></path>
                <path d="M59.394,662.279 C57.776,656.901 57.789,650.977 59.659,645.616 C60.618,642.978 62.11,640.358 64.569,638.769 C65.788,637.994 67.296,637.601 68.752,637.827 C70.212,638.037 71.529,638.807 72.576,639.787 C74.672,641.794 75.897,644.481 76.679,647.19 C77.444,649.923 77.751,652.777 77.633,655.601 C77.516,658.428 77.014,661.248 75.987,663.888 C74.941,666.479 73.377,669.043 70.912,670.473 C73.331,668.973 74.797,666.391 75.759,663.801 C76.726,661.177 77.18,658.378 77.248,655.592 C77.305,652.799 77.016,649.993 76.242,647.315 C75.464,644.661 74.239,642.048 72.235,640.152 C71.245,639.215 70.02,638.498 68.682,638.299 C67.346,638.084 65.961,638.433 64.808,639.155 C62.475,640.632 61.01,643.18 60.019,645.748 C59.039,648.359 58.56,651.152 58.463,653.947 C58.361,656.745 58.644,659.567 59.394,662.279" id="Fill-40" fill="#FBB040" sketch:type="MSShapeGroup"></path>
                <path d="M267.639,706.217 C265.296,704.481 263.512,701.963 262.625,699.133 C261.755,696.298 261.824,693.173 262.808,690.341 C263.771,687.495 265.729,685.023 268.176,683.292 C270.628,681.552 273.608,680.57 276.618,680.491 C279.627,680.424 282.653,681.255 285.188,682.87 C287.718,684.48 289.802,686.842 290.915,689.633 C292.05,692.407 292.279,695.525 291.562,698.404 C290.823,701.278 289.166,703.883 286.91,705.731 C289.005,703.711 290.516,701.104 291.066,698.291 C291.658,695.493 291.339,692.527 290.181,689.947 C289.02,687.368 287.092,685.148 284.687,683.671 C282.292,682.181 279.455,681.439 276.643,681.527 C273.83,681.571 271.034,682.457 268.717,684.064 C266.389,685.659 264.574,687.977 263.554,690.613 C262.537,693.25 262.371,696.229 263.111,698.994 C263.809,701.775 265.447,704.303 267.639,706.217" id="Fill-41" fill="#FBB040" sketch:type="MSShapeGroup"></path>
                <path d="M301.373,705.368 C304.755,697.333 303.594,687.706 298.464,680.821 C295.932,677.376 292.578,674.538 288.732,672.68 C284.893,670.807 280.609,669.903 276.336,670.026 C272.087,670.111 267.836,671.227 264.101,673.291 C260.353,675.339 257.149,678.346 254.799,681.916 C250.04,689.059 249.396,698.738 253.201,706.58 C251.129,702.754 250.136,698.345 250.278,693.96 C250.437,689.573 251.786,685.227 254.126,681.486 C256.447,677.727 259.79,674.625 263.643,672.465 C267.502,670.301 271.887,669.106 276.323,668.99 C280.734,668.894 285.19,669.865 289.148,671.834 C293.104,673.796 296.598,676.727 299.11,680.359 C301.64,683.973 303.225,688.236 303.616,692.61 C303.99,696.979 303.24,701.438 301.373,705.368" id="Fill-42" fill="#FBB040" sketch:type="MSShapeGroup"></path>
                <path d="M393,674 C393.011,677.245 392.121,680.542 390.22,683.211 C389.275,684.54 388.092,685.722 386.675,686.563 C385.266,687.408 383.631,687.902 381.97,687.923 C378.607,687.989 375.443,686.043 373.521,683.355 C371.557,680.656 370.616,677.31 370.594,674 C370.613,670.69 371.557,667.344 373.519,664.644 C375.44,661.954 378.607,660.009 381.97,660.076 C383.631,660.096 385.267,660.591 386.675,661.437 C388.092,662.277 389.276,663.459 390.22,664.789 C392.121,667.458 393.011,670.755 393,674 L393,674 Z M393,674 C392.978,670.755 392.053,667.477 390.138,664.848 C388.261,662.226 385.199,660.358 381.97,660.424 C380.372,660.445 378.8,660.921 377.439,661.738 C376.07,662.551 374.922,663.697 374.002,664.992 C372.148,667.592 371.277,670.819 371.285,674 C371.274,677.181 372.148,680.408 374.001,683.009 C375.791,685.614 378.734,687.556 381.97,687.577 C385.2,687.643 388.262,685.775 390.138,683.152 C392.053,680.522 392.978,677.245 393,674 L393,674 Z" id="Fill-43" fill="#FBB040" sketch:type="MSShapeGroup"></path>
                <path d="M394.313,689.629 C396.941,686.051 398.503,681.775 398.98,677.415 C399.488,673.06 399.005,668.582 397.462,664.503 C395.913,660.45 393.354,656.705 389.783,654.266 C388.012,653.048 386.003,652.184 383.902,651.795 C381.798,651.409 379.614,651.497 377.562,652.059 C373.408,653.141 369.882,656.08 367.524,659.69 C365.131,663.313 363.842,667.611 363.499,671.953 C363.174,676.307 363.843,680.753 365.595,684.777 C367.306,688.8 370.18,692.417 374.031,694.648 C370.043,692.643 366.998,689.037 365.082,685.01 C363.184,680.943 362.391,676.383 362.618,671.897 C362.832,667.401 364.194,662.934 366.649,659.118 C369.087,655.325 372.786,652.153 377.267,650.951 C379.497,650.362 381.853,650.286 384.104,650.72 C386.363,651.154 388.506,652.101 390.375,653.407 C394.127,656.033 396.812,659.954 398.287,664.202 C399.781,668.46 400.169,673.059 399.535,677.488 C398.863,681.903 397.151,686.203 394.313,689.629" id="Fill-44" fill="#FBB040" sketch:type="MSShapeGroup"></path>
                <path d="M168.166,677.334 C168.189,680.579 169.114,683.856 171.029,686.486 C172.905,689.109 175.966,690.977 179.197,690.911 C182.432,690.89 185.376,688.948 187.166,686.343 C189.018,683.742 189.892,680.515 189.881,677.334 C189.889,674.153 189.018,670.926 187.165,668.326 C186.245,667.031 185.096,665.885 183.727,665.072 C182.367,664.255 180.794,663.779 179.197,663.758 C175.967,663.692 172.906,665.56 171.029,668.182 C169.114,670.812 168.189,674.089 168.166,677.334 L168.166,677.334 Z M168.166,677.334 C168.156,674.089 169.045,670.792 170.947,668.123 C171.89,666.793 173.075,665.611 174.492,664.771 C175.9,663.925 177.536,663.43 179.197,663.41 C182.559,663.343 185.726,665.288 187.647,667.979 C189.61,670.678 190.553,674.024 190.573,677.334 C190.55,680.644 189.61,683.99 187.646,686.689 C185.723,689.377 182.559,691.323 179.197,691.257 C177.536,691.236 175.901,690.742 174.492,689.897 C173.075,689.056 171.891,687.874 170.947,686.545 C169.045,683.876 168.156,680.579 168.166,677.334 L168.166,677.334 Z" id="Fill-45" fill="#FBB040" sketch:type="MSShapeGroup"></path>
                <path d="M166.853,692.963 C164.015,689.537 162.303,685.237 161.631,680.822 C160.998,676.393 161.385,671.794 162.879,667.536 C164.354,663.288 167.04,659.367 170.791,656.741 C172.661,655.435 174.803,654.488 177.062,654.054 C179.313,653.62 181.669,653.696 183.9,654.285 C188.38,655.487 192.08,658.659 194.517,662.452 C196.972,666.268 198.334,670.735 198.548,675.231 C198.776,679.717 197.983,684.277 196.084,688.344 C194.168,692.371 191.123,695.977 187.135,697.981 C190.987,695.751 193.861,692.134 195.572,688.111 C197.324,684.087 197.993,679.641 197.667,675.287 C197.325,670.945 196.036,666.648 193.642,663.023 C191.285,659.414 187.758,656.475 183.604,655.393 C181.552,654.831 179.369,654.743 177.264,655.129 C175.164,655.518 173.155,656.382 171.383,657.6 C167.812,660.039 165.253,663.784 163.705,667.837 C162.162,671.916 161.678,676.394 162.186,680.749 C162.664,685.109 164.225,689.385 166.853,692.963" id="Fill-46" fill="#FBB040" sketch:type="MSShapeGroup"></path>
                <path d="M94,626.333 L158.666,615.667 L96,627.667 L94,626.333" id="Fill-47" fill="#FFFFFF" sketch:type="MSShapeGroup"></path>
                <path d="M102.666,647 L166.666,632.333 L104,648 L102.666,647" id="Fill-48" fill="#FFFFFF" sketch:type="MSShapeGroup"></path>
                <path d="M202.667,646.334 L225.333,637.667" id="Stroke-49" stroke="#FFFFFF" sketch:type="MSShapeGroup"></path>
                <path d="M214.666,665.667 L239.333,651.001" id="Stroke-50" stroke="#FFFFFF" stroke-width="0.5" sketch:type="MSShapeGroup"></path>
                <path d="M359.333,641.001 L336.666,632.334" id="Stroke-51" stroke="#FFFFFF" sketch:type="MSShapeGroup"></path>
                <path d="M347.333,660.334 L322.667,645.668" id="Stroke-52" stroke="#FFFFFF" stroke-width="0.5" sketch:type="MSShapeGroup"></path>
            </g>
        </g>
    </g>
</svg>